<?xml version="1.0" encoding="UTF-8" standalone="no"?>
<svg height="120px" id="svg2" width="90px" xmlns="http://www.w3.org/2000/svg" xmlns:svg="http://www.w3.org/2000/svg">
  <g id="g5">
    <rect fill="#bcbaad" height="16" id="rect7" rx="2" width="80" x="5" y="100"/>
    <g id="g9">
      <rect fill="#96958c" height="6" id="rect11" rx="0.5" width="5" x="72" y="108"/>
      <rect fill="#0f0d00" height="4" id="rect13" rx="0.5" width="3" x="73" y="109"/>
    </g>
  </g>
  <g id="g15">
    <rect fill="#b5b3a5" height="103" id="rect17" rx="2" width="84" x="3" y="3"/>
    <rect fill="#d4d2c4" height="94" id="rect19" rx="1" width="80" x="5" y="8"/>
  </g>
  <g id="g21">
    <g fill="#c2bfad" id="g23">
      <rect height="8" id="rect25" rx="0.5" width="14" x="66" y="82"/>
      <rect height="4" id="rect27" rx="0.5" width="32" x="43" y="84"/>
    </g>
    <circle cx="79" cy="88" fill="#000000" id="circle29" r="0.3"/>
    <rect fill="#aca897" height="6" id="rect31" rx="0.5" width="10" x="68" y="83"/>
    <g fill="#0f0d00" id="g33">
      <rect height="2" id="rect35" rx="0.5" width="32" x="45" y="85"/>
      <rect height="4" id="rect37" rx="0.5" width="10" x="68" y="84"/>
    </g>
  </g>
  <g id="g39">
    <rect fill="#b3aca2" height="55" id="rect41" rx="2" width="70" x="10" y="14"/>
    <path d="M           16 17 C 30 15 60 15           74 17 C 75 17 77 19           77 20 C 78 30 78 53           77 63 C 77 64 75 66           74 66 C 60 68 30 68           16 66 C 15 66 13 64           13 63 C 12 53 12 30           13 20 C 13 19 15 17           16 17" fill="#000" id="path43"/>
  </g>
</svg>
